<svg width="285" height="44" viewBox="0 0 285 44" fill="none" xmlns="http://www.w3.org/2000/svg">
<path d="M108.767 16.3636V28H106.659V18.4148H106.591L103.869 20.1534V18.2216L106.761 16.3636H108.767ZM120.631 28.2216C119.696 28.2216 118.893 27.9848 118.222 27.5114C117.556 27.0341 117.042 26.3466 116.683 25.4489C116.327 24.5473 116.149 23.4621 116.149 22.1932C116.152 20.9242 116.332 19.8447 116.688 18.9545C117.048 18.0606 117.561 17.3788 118.228 16.9091C118.899 16.4394 119.7 16.2045 120.631 16.2045C121.563 16.2045 122.364 16.4394 123.035 16.9091C123.705 17.3788 124.219 18.0606 124.575 18.9545C124.935 19.8485 125.114 20.928 125.114 22.1932C125.114 23.4659 124.935 24.553 124.575 25.4545C124.219 26.3523 123.705 27.0379 123.035 27.5114C122.368 27.9848 121.567 28.2216 120.631 28.2216ZM120.631 26.4432C121.359 26.4432 121.933 26.0852 122.353 25.3693C122.777 24.6496 122.989 23.5909 122.989 22.1932C122.989 21.2689 122.893 20.4924 122.7 19.8636C122.506 19.2348 122.234 18.7614 121.881 18.4432C121.529 18.1212 121.113 17.9602 120.631 17.9602C119.908 17.9602 119.336 18.3201 118.916 19.0398C118.495 19.7557 118.283 20.8068 118.279 22.1932C118.275 23.1212 118.368 23.9015 118.558 24.5341C118.751 25.1667 119.024 25.6439 119.376 25.9659C119.728 26.2841 120.147 26.4432 120.631 26.4432ZM135.912 28.2216C134.976 28.2216 134.173 27.9848 133.503 27.5114C132.836 27.0341 132.323 26.3466 131.963 25.4489C131.607 24.5473 131.429 23.4621 131.429 22.1932C131.433 20.9242 131.613 19.8447 131.969 18.9545C132.329 18.0606 132.842 17.3788 133.509 16.9091C134.179 16.4394 134.98 16.2045 135.912 16.2045C136.844 16.2045 137.645 16.4394 138.316 16.9091C138.986 17.3788 139.499 18.0606 139.855 18.9545C140.215 19.8485 140.395 20.928 140.395 22.1932C140.395 23.4659 140.215 24.553 139.855 25.4545C139.499 26.3523 138.986 27.0379 138.316 27.5114C137.649 27.9848 136.848 28.2216 135.912 28.2216ZM135.912 26.4432C136.639 26.4432 137.213 26.0852 137.634 25.3693C138.058 24.6496 138.27 23.5909 138.27 22.1932C138.27 21.2689 138.173 20.4924 137.98 19.8636C137.787 19.2348 137.514 18.7614 137.162 18.4432C136.81 18.1212 136.393 17.9602 135.912 17.9602C135.189 17.9602 134.617 18.3201 134.196 19.0398C133.776 19.7557 133.564 20.8068 133.56 22.1932C133.556 23.1212 133.649 23.9015 133.838 24.5341C134.031 25.1667 134.304 25.6439 134.656 25.9659C135.009 26.2841 135.427 26.4432 135.912 26.4432ZM151.193 28.2216C150.257 28.2216 149.454 27.9848 148.784 27.5114C148.117 27.0341 147.604 26.3466 147.244 25.4489C146.888 24.5473 146.71 23.4621 146.71 22.1932C146.714 20.9242 146.893 19.8447 147.25 18.9545C147.609 18.0606 148.123 17.3788 148.789 16.9091C149.46 16.4394 150.261 16.2045 151.193 16.2045C152.125 16.2045 152.926 16.4394 153.596 16.9091C154.267 17.3788 154.78 18.0606 155.136 18.9545C155.496 19.8485 155.676 20.928 155.676 22.1932C155.676 23.4659 155.496 24.553 155.136 25.4545C154.78 26.3523 154.267 27.0379 153.596 27.5114C152.929 27.9848 152.128 28.2216 151.193 28.2216ZM151.193 26.4432C151.92 26.4432 152.494 26.0852 152.914 25.3693C153.339 24.6496 153.551 23.5909 153.551 22.1932C153.551 21.2689 153.454 20.4924 153.261 19.8636C153.068 19.2348 152.795 18.7614 152.443 18.4432C152.09 18.1212 151.674 17.9602 151.193 17.9602C150.469 17.9602 149.897 18.3201 149.477 19.0398C149.056 19.7557 148.844 20.8068 148.84 22.1932C148.837 23.1212 148.929 23.9015 149.119 24.5341C149.312 25.1667 149.585 25.6439 149.937 25.9659C150.289 26.2841 150.708 26.4432 151.193 26.4432ZM166.473 28.2216C165.538 28.2216 164.735 27.9848 164.064 27.5114C163.398 27.0341 162.884 26.3466 162.524 25.4489C162.168 24.5473 161.99 23.4621 161.99 22.1932C161.994 20.9242 162.174 19.8447 162.53 18.9545C162.89 18.0606 163.403 17.3788 164.07 16.9091C164.74 16.4394 165.542 16.2045 166.473 16.2045C167.405 16.2045 168.206 16.4394 168.877 16.9091C169.547 17.3788 170.06 18.0606 170.417 18.9545C170.776 19.8485 170.956 20.928 170.956 22.1932C170.956 23.4659 170.776 24.553 170.417 25.4545C170.06 26.3523 169.547 27.0379 168.877 27.5114C168.21 27.9848 167.409 28.2216 166.473 28.2216ZM166.473 26.4432C167.201 26.4432 167.774 26.0852 168.195 25.3693C168.619 24.6496 168.831 23.5909 168.831 22.1932C168.831 21.2689 168.735 20.4924 168.542 19.8636C168.348 19.2348 168.076 18.7614 167.723 18.4432C167.371 18.1212 166.954 17.9602 166.473 17.9602C165.75 17.9602 165.178 18.3201 164.757 19.0398C164.337 19.7557 164.125 20.8068 164.121 22.1932C164.117 23.1212 164.21 23.9015 164.399 24.5341C164.593 25.1667 164.865 25.6439 165.218 25.9659C165.57 26.2841 165.989 26.4432 166.473 26.4432Z" fill="#202020"/>
<path d="M181 10.5V34" stroke="#202020"/>
<rect x="1" y="1" width="283" height="42" rx="9" stroke="#FDF18D" stroke-width="2"/>
</svg>
