<svg width="820" height="320" viewBox="0 0 820 320" fill="none" xmlns="http://www.w3.org/2000/svg">
<g clip-path="url(#clip0_1_312)">
<rect width="820" height="320" rx="10" fill="white"/>
<path d="M778.795 217.443V208.068H780.386V217.443H778.795ZM774.903 213.551V211.96H784.278V213.551H774.903ZM799.228 205.455V220H797.467V207.301H797.381L793.83 209.659V207.869L797.467 205.455H799.228ZM815.83 217.727L819.637 209.091H821.228L816.512 220H815.149L810.518 209.091H812.08L815.83 217.727ZM811.541 209.091V220H809.865V209.091H811.541ZM820.12 220V209.091H821.796V220H820.12ZM829.838 220.227C828.787 220.227 827.881 219.995 827.118 219.531C826.361 219.062 825.776 218.409 825.364 217.571C824.957 216.728 824.753 215.748 824.753 214.631C824.753 213.513 824.957 212.528 825.364 211.676C825.776 210.819 826.349 210.152 827.083 209.673C827.821 209.19 828.683 208.949 829.668 208.949C830.236 208.949 830.797 209.044 831.351 209.233C831.905 209.422 832.409 209.73 832.864 210.156C833.319 210.578 833.681 211.136 833.951 211.832C834.221 212.528 834.355 213.385 834.355 214.403V215.114H825.946V213.665H832.651C832.651 213.049 832.528 212.5 832.282 212.017C832.04 211.534 831.694 211.153 831.245 210.874C830.8 210.594 830.274 210.455 829.668 210.455C829 210.455 828.423 210.62 827.935 210.952C827.452 211.278 827.08 211.705 826.82 212.23C826.56 212.756 826.429 213.319 826.429 213.92V214.886C826.429 215.71 826.571 216.409 826.855 216.982C827.144 217.55 827.544 217.983 828.056 218.281C828.567 218.575 829.161 218.722 829.838 218.722C830.279 218.722 830.676 218.66 831.032 218.537C831.391 218.409 831.702 218.22 831.962 217.969C832.222 217.713 832.424 217.396 832.566 217.017L834.185 217.472C834.015 218.021 833.728 218.504 833.326 218.92C832.923 219.332 832.426 219.654 831.834 219.886C831.242 220.114 830.577 220.227 829.838 220.227ZM841.737 220.227C840.714 220.227 839.834 219.986 839.095 219.503C838.356 219.02 837.788 218.355 837.39 217.507C836.993 216.66 836.794 215.691 836.794 214.602C836.794 213.494 836.997 212.517 837.405 211.669C837.817 210.817 838.389 210.152 839.123 209.673C839.862 209.19 840.724 208.949 841.709 208.949C842.476 208.949 843.167 209.091 843.782 209.375C844.398 209.659 844.902 210.057 845.295 210.568C845.688 211.08 845.932 211.676 846.027 212.358H844.351C844.223 211.861 843.939 211.42 843.498 211.037C843.063 210.649 842.476 210.455 841.737 210.455C841.084 210.455 840.511 210.625 840.018 210.966C839.531 211.302 839.149 211.778 838.875 212.393C838.605 213.004 838.47 213.722 838.47 214.545C838.47 215.388 838.603 216.122 838.868 216.747C839.138 217.372 839.516 217.857 840.004 218.203C840.496 218.549 841.074 218.722 841.737 218.722C842.173 218.722 842.568 218.646 842.923 218.494C843.278 218.343 843.579 218.125 843.825 217.841C844.071 217.557 844.246 217.216 844.351 216.818H846.027C845.932 217.462 845.698 218.042 845.324 218.558C844.954 219.07 844.464 219.477 843.853 219.78C843.247 220.078 842.542 220.227 841.737 220.227ZM855.44 220V210.625H852.542C851.888 210.625 851.375 210.777 851.001 211.08C850.627 211.383 850.44 211.799 850.44 212.33C850.44 212.85 850.608 213.26 850.944 213.558C851.285 213.857 851.751 214.006 852.343 214.006H855.866V215.568H852.343C851.604 215.568 850.967 215.438 850.432 215.178C849.897 214.917 849.485 214.545 849.197 214.062C848.908 213.575 848.763 212.997 848.763 212.33C848.763 211.657 848.915 211.08 849.218 210.597C849.521 210.114 849.954 209.742 850.518 209.482C851.086 209.221 851.761 209.091 852.542 209.091H857.03V220H855.44ZM848.167 220L851.263 214.574H853.082L849.985 220H848.167ZM869.087 209.091V218.438H870.621V223.523H868.945V220H860.508V209.091H862.184V218.438H867.411V209.091H869.087ZM879.855 220V205.455H881.616V211.932H889.372V205.455H891.134V220H889.372V213.494H881.616V220H879.855ZM899.264 220.227C898.279 220.227 897.415 219.993 896.672 219.524C895.933 219.055 895.356 218.4 894.939 217.557C894.527 216.714 894.321 215.729 894.321 214.602C894.321 213.466 894.527 212.474 894.939 211.626C895.356 210.779 895.933 210.121 896.672 209.652C897.415 209.183 898.279 208.949 899.264 208.949C900.249 208.949 901.111 209.183 901.85 209.652C902.593 210.121 903.171 210.779 903.583 211.626C903.999 212.474 904.208 213.466 904.208 214.602C904.208 215.729 903.999 216.714 903.583 217.557C903.171 218.4 902.593 219.055 901.85 219.524C901.111 219.993 900.249 220.227 899.264 220.227ZM899.264 218.722C900.012 218.722 900.628 218.53 901.111 218.146C901.594 217.763 901.951 217.259 902.183 216.634C902.415 216.009 902.531 215.331 902.531 214.602C902.531 213.873 902.415 213.194 902.183 212.564C901.951 211.934 901.594 211.425 901.111 211.037C900.628 210.649 900.012 210.455 899.264 210.455C898.516 210.455 897.901 210.649 897.418 211.037C896.935 211.425 896.577 211.934 896.345 212.564C896.113 213.194 895.997 213.873 895.997 214.602C895.997 215.331 896.113 216.009 896.345 216.634C896.577 217.259 896.935 217.763 897.418 218.146C897.901 218.53 898.516 218.722 899.264 218.722ZM915.696 209.091L911.662 220H909.957L905.923 209.091H907.741L910.753 217.784H910.866L913.878 209.091H915.696ZM922.492 220.227C921.44 220.227 920.534 219.995 919.771 219.531C919.014 219.062 918.429 218.409 918.017 217.571C917.61 216.728 917.406 215.748 917.406 214.631C917.406 213.513 917.61 212.528 918.017 211.676C918.429 210.819 919.002 210.152 919.736 209.673C920.474 209.19 921.336 208.949 922.321 208.949C922.889 208.949 923.45 209.044 924.004 209.233C924.558 209.422 925.063 209.73 925.517 210.156C925.972 210.578 926.334 211.136 926.604 211.832C926.874 212.528 927.009 213.385 927.009 214.403V215.114H918.599V213.665H925.304C925.304 213.049 925.181 212.5 924.935 212.017C924.693 211.534 924.348 211.153 923.898 210.874C923.453 210.594 922.927 210.455 922.321 210.455C921.653 210.455 921.076 210.62 920.588 210.952C920.105 211.278 919.733 211.705 919.473 212.23C919.213 212.756 919.082 213.319 919.082 213.92V214.886C919.082 215.71 919.224 216.409 919.509 216.982C919.797 217.55 920.198 217.983 920.709 218.281C921.22 218.575 921.814 218.722 922.492 218.722C922.932 218.722 923.33 218.66 923.685 218.537C924.045 218.409 924.355 218.22 924.615 217.969C924.876 217.713 925.077 217.396 925.219 217.017L926.838 217.472C926.668 218.021 926.381 218.504 925.979 218.92C925.576 219.332 925.079 219.654 924.487 219.886C923.895 220.114 923.23 220.227 922.492 220.227ZM929.958 220V209.091H931.578V210.739H931.691C931.89 210.199 932.25 209.761 932.771 209.425C933.292 209.089 933.879 208.92 934.532 208.92C934.655 208.92 934.809 208.923 934.994 208.928C935.178 208.932 935.318 208.939 935.413 208.949V210.653C935.356 210.639 935.226 210.618 935.022 210.589C934.823 210.556 934.613 210.54 934.39 210.54C933.86 210.54 933.386 210.651 932.97 210.874C932.558 211.091 932.231 211.394 931.99 211.783C931.753 212.166 931.634 212.604 931.634 213.097V220H929.958ZM945.982 209.091C945.896 208.371 945.551 207.812 944.945 207.415C944.339 207.017 943.595 206.818 942.714 206.818C942.071 206.818 941.507 206.922 941.024 207.131C940.546 207.339 940.172 207.625 939.902 207.99C939.637 208.355 939.504 208.769 939.504 209.233C939.504 209.621 939.597 209.955 939.781 210.234C939.971 210.509 940.212 210.739 940.506 210.923C940.799 211.103 941.107 211.252 941.429 211.371C941.751 211.484 942.047 211.577 942.317 211.648L943.794 212.045C944.173 212.145 944.594 212.282 945.058 212.457C945.527 212.633 945.974 212.872 946.401 213.175C946.831 213.473 947.187 213.857 947.466 214.325C947.745 214.794 947.885 215.369 947.885 216.051C947.885 216.837 947.679 217.547 947.267 218.182C946.86 218.816 946.263 219.321 945.477 219.695C944.696 220.069 943.747 220.256 942.629 220.256C941.588 220.256 940.686 220.088 939.923 219.751C939.166 219.415 938.569 218.946 938.134 218.345C937.703 217.744 937.459 217.045 937.402 216.25H939.22C939.268 216.799 939.452 217.254 939.774 217.614C940.101 217.969 940.513 218.234 941.01 218.409C941.512 218.58 942.052 218.665 942.629 218.665C943.302 218.665 943.905 218.556 944.44 218.338C944.975 218.116 945.399 217.808 945.712 217.415C946.024 217.017 946.18 216.553 946.18 216.023C946.18 215.54 946.045 215.147 945.776 214.844C945.506 214.541 945.151 214.295 944.71 214.105C944.27 213.916 943.794 213.75 943.283 213.608L941.493 213.097C940.357 212.77 939.457 212.304 938.794 211.697C938.131 211.091 937.8 210.298 937.8 209.318C937.8 208.504 938.02 207.794 938.46 207.188C938.905 206.577 939.502 206.103 940.25 205.767C941.003 205.426 941.843 205.256 942.771 205.256C943.709 205.256 944.542 205.424 945.271 205.76C946 206.091 946.578 206.546 947.004 207.124C947.435 207.701 947.662 208.357 947.686 209.091H945.982ZM950.954 220V209.091H952.63V220H950.954ZM951.806 207.273C951.479 207.273 951.197 207.161 950.961 206.939C950.729 206.716 950.613 206.449 950.613 206.136C950.613 205.824 950.729 205.556 950.961 205.334C951.197 205.111 951.479 205 951.806 205C952.133 205 952.412 205.111 952.644 205.334C952.881 205.556 952.999 205.824 952.999 206.136C952.999 206.449 952.881 206.716 952.644 206.939C952.412 207.161 952.133 207.273 951.806 207.273ZM960.503 224.318C959.693 224.318 958.997 224.214 958.415 224.006C957.833 223.802 957.347 223.532 956.959 223.196C956.576 222.865 956.27 222.509 956.043 222.131L957.378 221.193C957.53 221.392 957.721 221.619 957.953 221.875C958.185 222.135 958.503 222.36 958.905 222.55C959.312 222.744 959.845 222.841 960.503 222.841C961.384 222.841 962.111 222.628 962.684 222.202C963.256 221.776 963.543 221.108 963.543 220.199V217.983H963.401C963.278 218.182 963.103 218.428 962.875 218.722C962.653 219.01 962.331 219.268 961.909 219.496C961.493 219.718 960.929 219.83 960.219 219.83C959.338 219.83 958.548 219.621 957.847 219.205C957.151 218.788 956.599 218.182 956.192 217.386C955.79 216.591 955.588 215.625 955.588 214.489C955.588 213.371 955.785 212.398 956.178 211.57C956.571 210.736 957.118 210.092 957.818 209.638C958.519 209.179 959.329 208.949 960.247 208.949C960.958 208.949 961.521 209.067 961.938 209.304C962.359 209.536 962.681 209.801 962.904 210.099C963.131 210.393 963.306 210.634 963.429 210.824H963.6V209.091H965.219V220.312C965.219 221.25 965.006 222.012 964.58 222.599C964.158 223.191 963.59 223.625 962.875 223.899C962.165 224.179 961.374 224.318 960.503 224.318ZM960.446 218.324C961.119 218.324 961.687 218.17 962.151 217.862C962.615 217.554 962.968 217.112 963.209 216.534C963.451 215.956 963.571 215.265 963.571 214.46C963.571 213.674 963.453 212.981 963.216 212.379C962.979 211.778 962.629 211.307 962.165 210.966C961.701 210.625 961.128 210.455 960.446 210.455C959.736 210.455 959.144 210.634 958.671 210.994C958.202 211.354 957.849 211.837 957.613 212.443C957.38 213.049 957.264 213.722 957.264 214.46C957.264 215.218 957.383 215.888 957.62 216.47C957.861 217.048 958.216 217.502 958.685 217.834C959.158 218.161 959.746 218.324 960.446 218.324ZM970.363 213.438V220H968.687V209.091H970.307V210.795H970.449C970.704 210.241 971.093 209.796 971.613 209.46C972.134 209.119 972.807 208.949 973.63 208.949C974.369 208.949 975.015 209.1 975.569 209.403C976.123 209.702 976.554 210.156 976.862 210.767C977.17 211.373 977.324 212.14 977.324 213.068V220H975.647V213.182C975.647 212.325 975.425 211.657 974.98 211.179C974.535 210.696 973.924 210.455 973.147 210.455C972.612 210.455 972.134 210.571 971.713 210.803C971.296 211.035 970.967 211.373 970.726 211.818C970.484 212.263 970.363 212.803 970.363 213.438ZM983.997 220.256C983.305 220.256 982.678 220.125 982.115 219.865C981.551 219.6 981.104 219.219 980.772 218.722C980.441 218.22 980.275 217.614 980.275 216.903C980.275 216.278 980.398 215.772 980.644 215.384C980.891 214.991 981.22 214.683 981.632 214.46C982.044 214.238 982.498 214.072 982.995 213.963C983.497 213.849 984.001 213.759 984.508 213.693C985.171 213.608 985.708 213.544 986.12 213.501C986.537 213.454 986.84 213.376 987.029 213.267C987.223 213.158 987.321 212.969 987.321 212.699V212.642C987.321 211.941 987.129 211.397 986.745 211.009C986.366 210.62 985.791 210.426 985.019 210.426C984.219 210.426 983.592 210.601 983.137 210.952C982.683 211.302 982.363 211.676 982.178 212.074L980.588 211.506C980.872 210.843 981.25 210.327 981.724 209.957C982.202 209.583 982.723 209.323 983.286 209.176C983.855 209.025 984.413 208.949 984.963 208.949C985.313 208.949 985.715 208.991 986.17 209.077C986.629 209.157 987.072 209.325 987.498 209.581C987.929 209.837 988.286 210.223 988.571 210.739C988.855 211.255 988.997 211.946 988.997 212.812V220H987.321V218.523H987.235C987.122 218.759 986.932 219.013 986.667 219.283C986.402 219.553 986.049 219.782 985.609 219.972C985.169 220.161 984.631 220.256 983.997 220.256ZM984.252 218.75C984.915 218.75 985.474 218.62 985.928 218.359C986.388 218.099 986.733 217.763 986.965 217.351C987.202 216.939 987.321 216.506 987.321 216.051V214.517C987.25 214.602 987.093 214.68 986.852 214.751C986.615 214.818 986.34 214.877 986.028 214.929C985.72 214.976 985.419 215.019 985.126 215.057C984.837 215.09 984.603 215.118 984.423 215.142C983.987 215.199 983.58 215.291 983.201 215.419C982.827 215.542 982.524 215.729 982.292 215.98C982.065 216.226 981.951 216.562 981.951 216.989C981.951 217.571 982.167 218.011 982.598 218.31C983.033 218.603 983.585 218.75 984.252 218.75ZM994.132 205.455V220H992.456V205.455H994.132ZM774.534 245V234.091H778.994C780.169 234.091 781.101 234.356 781.793 234.886C782.484 235.417 782.83 236.117 782.83 236.989C782.83 237.652 782.633 238.165 782.24 238.53C781.847 238.89 781.343 239.134 780.727 239.261C781.13 239.318 781.52 239.46 781.899 239.688C782.283 239.915 782.6 240.227 782.851 240.625C783.102 241.018 783.227 241.501 783.227 242.074C783.227 242.633 783.085 243.132 782.801 243.572C782.517 244.013 782.11 244.361 781.58 244.616C781.049 244.872 780.415 245 779.676 245H774.534ZM776.125 243.466H779.676C780.254 243.466 780.706 243.329 781.033 243.054C781.359 242.779 781.523 242.405 781.523 241.932C781.523 241.368 781.359 240.926 781.033 240.604C780.706 240.277 780.254 240.114 779.676 240.114H776.125V243.466ZM776.125 238.665H778.994C779.444 238.665 779.83 238.603 780.152 238.48C780.474 238.352 780.72 238.172 780.891 237.94C781.066 237.704 781.153 237.424 781.153 237.102C781.153 236.643 780.962 236.283 780.578 236.023C780.195 235.758 779.667 235.625 778.994 235.625H776.125V238.665ZM792.19 245V234.091H800.769V245H799.093V235.653H793.866V245H792.19ZM808.662 245.227C807.677 245.227 806.813 244.993 806.07 244.524C805.331 244.055 804.753 243.4 804.337 242.557C803.925 241.714 803.719 240.729 803.719 239.602C803.719 238.466 803.925 237.474 804.337 236.626C804.753 235.779 805.331 235.121 806.07 234.652C806.813 234.183 807.677 233.949 808.662 233.949C809.647 233.949 810.509 234.183 811.247 234.652C811.991 235.121 812.568 235.779 812.98 236.626C813.397 237.474 813.605 238.466 813.605 239.602C813.605 240.729 813.397 241.714 812.98 242.557C812.568 243.4 811.991 244.055 811.247 244.524C810.509 244.993 809.647 245.227 808.662 245.227ZM808.662 243.722C809.41 243.722 810.026 243.53 810.509 243.146C810.992 242.763 811.349 242.259 811.581 241.634C811.813 241.009 811.929 240.331 811.929 239.602C811.929 238.873 811.813 238.194 811.581 237.564C811.349 236.934 810.992 236.425 810.509 236.037C810.026 235.649 809.41 235.455 808.662 235.455C807.914 235.455 807.298 235.649 806.815 236.037C806.332 236.425 805.975 236.934 805.743 237.564C805.511 238.194 805.395 238.873 805.395 239.602C805.395 240.331 805.511 241.009 805.743 241.634C805.975 242.259 806.332 242.763 806.815 243.146C807.298 243.53 807.914 243.722 808.662 243.722ZM815.399 248.125V243.438H816.308C816.531 243.205 816.722 242.955 816.883 242.685C817.044 242.415 817.184 242.095 817.302 241.726C817.426 241.352 817.53 240.897 817.615 240.362C817.7 239.822 817.776 239.171 817.842 238.409L818.212 234.091H825.143V243.438H826.819V248.125H825.143V245H817.075V248.125H815.399ZM818.212 243.438H823.467V235.653H819.774L819.49 238.409C819.372 239.55 819.225 240.547 819.05 241.399C818.874 242.251 818.595 242.931 818.212 243.438ZM832.654 245.256C831.963 245.256 831.336 245.125 830.772 244.865C830.209 244.6 829.761 244.219 829.43 243.722C829.099 243.22 828.933 242.614 828.933 241.903C828.933 241.278 829.056 240.772 829.302 240.384C829.548 239.991 829.877 239.683 830.289 239.46C830.701 239.238 831.156 239.072 831.653 238.963C832.155 238.849 832.659 238.759 833.166 238.693C833.829 238.608 834.366 238.544 834.778 238.501C835.195 238.454 835.498 238.376 835.687 238.267C835.881 238.158 835.978 237.969 835.978 237.699V237.642C835.978 236.941 835.787 236.397 835.403 236.009C835.024 235.62 834.449 235.426 833.677 235.426C832.877 235.426 832.25 235.601 831.795 235.952C831.341 236.302 831.021 236.676 830.836 237.074L829.245 236.506C829.529 235.843 829.908 235.327 830.382 234.957C830.86 234.583 831.381 234.323 831.944 234.176C832.512 234.025 833.071 233.949 833.62 233.949C833.971 233.949 834.373 233.991 834.828 234.077C835.287 234.157 835.73 234.325 836.156 234.581C836.587 234.837 836.944 235.223 837.228 235.739C837.512 236.255 837.654 236.946 837.654 237.812V245H835.978V243.523H835.893C835.779 243.759 835.59 244.013 835.325 244.283C835.06 244.553 834.707 244.782 834.267 244.972C833.826 245.161 833.289 245.256 832.654 245.256ZM832.91 243.75C833.573 243.75 834.132 243.62 834.586 243.359C835.046 243.099 835.391 242.763 835.623 242.351C835.86 241.939 835.978 241.506 835.978 241.051V239.517C835.907 239.602 835.751 239.68 835.51 239.751C835.273 239.818 834.998 239.877 834.686 239.929C834.378 239.976 834.077 240.019 833.784 240.057C833.495 240.09 833.261 240.118 833.081 240.142C832.645 240.199 832.238 240.291 831.859 240.419C831.485 240.542 831.182 240.729 830.95 240.98C830.723 241.226 830.609 241.562 830.609 241.989C830.609 242.571 830.824 243.011 831.255 243.31C831.691 243.603 832.243 243.75 832.91 243.75ZM841.114 249.091V234.091H842.733V235.824H842.932C843.055 235.634 843.226 235.393 843.443 235.099C843.666 234.801 843.983 234.536 844.395 234.304C844.812 234.067 845.375 233.949 846.085 233.949C847.004 233.949 847.814 234.179 848.514 234.638C849.215 235.097 849.762 235.748 850.155 236.591C850.548 237.434 850.744 238.428 850.744 239.574C850.744 240.729 850.548 241.731 850.155 242.578C849.762 243.421 849.217 244.074 848.521 244.538C847.825 244.998 847.023 245.227 846.114 245.227C845.413 245.227 844.852 245.111 844.431 244.879C844.009 244.643 843.685 244.375 843.458 244.077C843.23 243.774 843.055 243.523 842.932 243.324H842.79V249.091H841.114ZM842.762 239.545C842.762 240.369 842.882 241.096 843.124 241.726C843.365 242.351 843.718 242.841 844.182 243.196C844.646 243.546 845.214 243.722 845.887 243.722C846.587 243.722 847.172 243.537 847.641 243.168C848.114 242.794 848.469 242.292 848.706 241.662C848.948 241.027 849.068 240.322 849.068 239.545C849.068 238.778 848.95 238.087 848.713 237.472C848.481 236.851 848.128 236.361 847.655 236.001C847.186 235.637 846.597 235.455 845.887 235.455C845.205 235.455 844.632 235.627 844.168 235.973C843.704 236.314 843.353 236.792 843.117 237.408C842.88 238.018 842.762 238.731 842.762 239.545ZM858.133 245.227C857.148 245.227 856.284 244.993 855.541 244.524C854.802 244.055 854.224 243.4 853.808 242.557C853.396 241.714 853.19 240.729 853.19 239.602C853.19 238.466 853.396 237.474 853.808 236.626C854.224 235.779 854.802 235.121 855.541 234.652C856.284 234.183 857.148 233.949 858.133 233.949C859.118 233.949 859.98 234.183 860.718 234.652C861.462 235.121 862.039 235.779 862.451 236.626C862.868 237.474 863.076 238.466 863.076 239.602C863.076 240.729 862.868 241.714 862.451 242.557C862.039 243.4 861.462 244.055 860.718 244.524C859.98 244.993 859.118 245.227 858.133 245.227ZM858.133 243.722C858.881 243.722 859.497 243.53 859.98 243.146C860.463 242.763 860.82 242.259 861.052 241.634C861.284 241.009 861.4 240.331 861.4 239.602C861.4 238.873 861.284 238.194 861.052 237.564C860.82 236.934 860.463 236.425 859.98 236.037C859.497 235.649 858.881 235.455 858.133 235.455C857.385 235.455 856.769 235.649 856.287 236.037C855.804 236.425 855.446 236.934 855.214 237.564C854.982 238.194 854.866 238.873 854.866 239.602C854.866 240.331 854.982 241.009 855.214 241.634C855.446 242.259 855.804 242.763 856.287 243.146C856.769 243.53 857.385 243.722 858.133 243.722ZM866.035 245V234.091H867.711V238.835H868.819L872.739 234.091H874.899L870.495 239.347L874.955 245H872.796L869.217 240.398H867.711V245H866.035Z" fill="white"/>
<circle cx="69" cy="258" r="84" fill="#FC8AD0"/>
<circle cx="783" cy="62" r="82" fill="#FDF18D"/>
</g>
<defs>
<clipPath id="clip0_1_312">
<rect width="820" height="320" rx="10" fill="white"/>
</clipPath>
</defs>
</svg>
