<svg width="285" height="44" viewBox="0 0 285 44" fill="none" xmlns="http://www.w3.org/2000/svg">
<path d="M29.767 16.3636V28H27.6591V18.4148H27.5909L24.8693 20.1534V18.2216L27.7614 16.3636H29.767ZM37.3427 28.2216C36.4071 28.2216 35.6041 27.9848 34.9336 27.5114C34.267 27.0341 33.7537 26.3466 33.3939 25.4489C33.0378 24.5473 32.8598 23.4621 32.8598 22.1932C32.8636 20.9242 33.0435 19.8447 33.3995 18.9545C33.7594 18.0606 34.2727 17.3788 34.9393 16.9091C35.6098 16.4394 36.4109 16.2045 37.3427 16.2045C38.2745 16.2045 39.0757 16.4394 39.7461 16.9091C40.4166 17.3788 40.9298 18.0606 41.2859 18.9545C41.6458 19.8485 41.8257 20.928 41.8257 22.1932C41.8257 23.4659 41.6458 24.553 41.2859 25.4545C40.9298 26.3523 40.4166 27.0379 39.7461 27.5114C39.0795 27.9848 38.2783 28.2216 37.3427 28.2216ZM37.3427 26.4432C38.07 26.4432 38.6439 26.0852 39.0643 25.3693C39.4886 24.6496 39.7007 23.5909 39.7007 22.1932C39.7007 21.2689 39.6041 20.4924 39.4109 19.8636C39.2177 19.2348 38.945 18.7614 38.5927 18.4432C38.2405 18.1212 37.8238 17.9602 37.3427 17.9602C36.6192 17.9602 36.0473 18.3201 35.6268 19.0398C35.2064 19.7557 34.9942 20.8068 34.9905 22.1932C34.9867 23.1212 35.0795 23.9015 35.2689 24.5341C35.462 25.1667 35.7348 25.6439 36.087 25.9659C36.4393 26.2841 36.8579 26.4432 37.3427 26.4432Z" fill="#202020"/>
<path d="M254 14L260.062 20H247.938L254 14Z" fill="#202020"/>
<path d="M254 31L247.938 25L260.062 25L254 31Z" fill="#202020"/>
<rect x="1" y="1" width="283" height="42" rx="9" stroke="#FDF18D" stroke-width="2"/>
</svg>
