<svg width="285" height="44" viewBox="0 0 285 44" fill="none" xmlns="http://www.w3.org/2000/svg">
<path d="M25.0341 28V26.4773L29.0739 22.517C29.4602 22.1269 29.7822 21.7803 30.0398 21.4773C30.2973 21.1742 30.4905 20.8807 30.6193 20.5966C30.7481 20.3125 30.8125 20.0095 30.8125 19.6875C30.8125 19.3201 30.7292 19.0057 30.5625 18.7443C30.3958 18.4792 30.1667 18.2746 29.875 18.1307C29.5833 17.9867 29.2519 17.9148 28.8807 17.9148C28.4981 17.9148 28.1629 17.9943 27.875 18.1534C27.5871 18.3087 27.3636 18.5303 27.2045 18.8182C27.0492 19.1061 26.9716 19.4489 26.9716 19.8466H24.9659C24.9659 19.108 25.1345 18.4659 25.4716 17.9205C25.8087 17.375 26.2727 16.9527 26.8636 16.6534C27.4583 16.3542 28.1402 16.2045 28.9091 16.2045C29.6894 16.2045 30.375 16.3504 30.9659 16.642C31.5568 16.9337 32.0152 17.3333 32.3409 17.8409C32.6705 18.3485 32.8352 18.928 32.8352 19.5795C32.8352 20.0152 32.7519 20.4432 32.5852 20.8636C32.4186 21.2841 32.125 21.75 31.7045 22.2614C31.2879 22.7727 30.7027 23.392 29.9489 24.1193L27.9432 26.1591V26.2386H33.0114V28H25.0341ZM39.337 28.1591C38.5795 28.1591 37.9014 28.017 37.303 27.733C36.7045 27.4451 36.2291 27.0511 35.8768 26.5511C35.5283 26.0511 35.3427 25.4792 35.32 24.8352H37.3655C37.4033 25.3125 37.6098 25.7027 37.9848 26.0057C38.3598 26.3049 38.8105 26.4545 39.337 26.4545C39.7499 26.4545 40.1173 26.3598 40.4393 26.1705C40.7613 25.9811 41.0151 25.7178 41.2007 25.3807C41.3863 25.0436 41.4772 24.6591 41.4734 24.2273C41.4772 23.7879 41.3844 23.3977 41.195 23.0568C41.0056 22.7159 40.7461 22.4489 40.4166 22.2557C40.087 22.0587 39.7083 21.9602 39.2802 21.9602C38.9317 21.9564 38.5889 22.0208 38.2518 22.1534C37.9147 22.286 37.6477 22.4602 37.4507 22.6761L35.5473 22.3636L36.1552 16.3636H42.9052V18.125H37.8995L37.5643 21.2102H37.6325C37.8484 20.9564 38.1533 20.7462 38.5473 20.5795C38.9412 20.4091 39.373 20.3239 39.8427 20.3239C40.5473 20.3239 41.1761 20.4905 41.7291 20.8239C42.2821 21.1534 42.7177 21.608 43.0359 22.1875C43.3541 22.767 43.5132 23.4299 43.5132 24.1761C43.5132 24.9451 43.3352 25.6307 42.9791 26.233C42.6268 26.8314 42.1363 27.303 41.5075 27.6477C40.8825 27.9886 40.159 28.1591 39.337 28.1591ZM51.9582 25.8182V25.2045C51.9582 24.7538 52.0529 24.339 52.2423 23.9602C52.4355 23.5814 52.7158 23.2765 53.0832 23.0455C53.4506 22.8144 53.8957 22.6989 54.4184 22.6989C54.9563 22.6989 55.407 22.8144 55.7707 23.0455C56.1343 23.2727 56.4089 23.5758 56.5945 23.9545C56.7839 24.3333 56.8786 24.75 56.8786 25.2045V25.8182C56.8786 26.2689 56.7839 26.6837 56.5945 27.0625C56.4052 27.4413 56.1267 27.7462 55.7593 27.9773C55.3957 28.2083 54.9487 28.3239 54.4184 28.3239C53.8881 28.3239 53.4392 28.2083 53.0718 27.9773C52.7044 27.7462 52.426 27.4413 52.2366 27.0625C52.051 26.6837 51.9582 26.2689 51.9582 25.8182ZM53.4411 25.2045V25.8182C53.4411 26.1174 53.5131 26.392 53.657 26.642C53.801 26.892 54.0548 27.017 54.4184 27.017C54.7858 27.017 55.0377 26.8939 55.1741 26.6477C55.3142 26.3977 55.3843 26.1212 55.3843 25.8182V25.2045C55.3843 24.9015 55.318 24.625 55.1855 24.375C55.0529 24.1212 54.7972 23.9943 54.4184 23.9943C54.0623 23.9943 53.8105 24.1212 53.6627 24.375C53.515 24.625 53.4411 24.9015 53.4411 25.2045ZM46.0434 19.1591V18.5455C46.0434 18.0909 46.14 17.6742 46.3332 17.2955C46.5264 16.9167 46.8067 16.6136 47.1741 16.3864C47.5415 16.1553 47.9866 16.0398 48.5093 16.0398C49.0434 16.0398 49.4923 16.1553 49.8559 16.3864C50.2233 16.6136 50.4998 16.9167 50.6855 17.2955C50.8711 17.6742 50.9639 18.0909 50.9639 18.5455V19.1591C50.9639 19.6136 50.8692 20.0303 50.6798 20.4091C50.4942 20.7841 50.2177 21.0852 49.8502 21.3125C49.4828 21.5398 49.0358 21.6534 48.5093 21.6534C47.9752 21.6534 47.5245 21.5398 47.157 21.3125C46.7934 21.0852 46.5169 20.7822 46.3275 20.4034C46.1381 20.0246 46.0434 19.6098 46.0434 19.1591ZM47.5377 18.5455V19.1591C47.5377 19.4621 47.6078 19.7386 47.748 19.9886C47.8919 20.2348 48.1457 20.358 48.5093 20.358C48.873 20.358 49.123 20.2348 49.2593 19.9886C49.3995 19.7386 49.4695 19.4621 49.4695 19.1591V18.5455C49.4695 18.2424 49.4033 17.9659 49.2707 17.7159C49.1381 17.4621 48.8843 17.3352 48.5093 17.3352C48.1495 17.3352 47.8976 17.4621 47.7536 17.7159C47.6097 17.9697 47.5377 18.2462 47.5377 18.5455ZM46.6911 28L54.6911 16.3636H56.1116L48.1116 28H46.6911Z" fill="#202020"/>
<path d="M254 14L260.062 20H247.938L254 14Z" fill="#202020"/>
<path d="M254 31L247.938 25L260.062 25L254 31Z" fill="#202020"/>
<rect x="1" y="1" width="283" height="42" rx="9" stroke="#FDF18D" stroke-width="2"/>
</svg>
