<svg width="1223" height="657" viewBox="0 0 1223 657" fill="none" xmlns="http://www.w3.org/2000/svg">
<path d="M98.9998 384.006C80.3331 350.506 38.4999 280.179 38.4999 307C38.4999 321 55.9999 315.5 59.9998 290.506C62.8057 272.972 34.9999 235.001 20.9998 236.502C-17.1286 240.592 44.2586 385.747 11.9999 396.5C-7.50024 403 53.9998 519.5 12.9998 542.006C-37.6984 569.836 91.1665 633.006 115.5 645.506" stroke="#FC8AD0" stroke-width="2" stroke-linecap="round"/>
<path d="M496 375.002C498.5 382.502 513.28 429.35 550 414.502C573.5 405 588.5 355.002 607.5 326.502C624.5 301.002 675.5 283.5 680.5 315.999C689.058 371.624 636.5 390.5 635 386.002C612.5 367 690 339 705 335.502C734.588 328.603 733.833 341.502 729.5 341.502" stroke="#FC8AD0" stroke-width="2" stroke-linecap="round"/>
<path d="M1105.5 133.997C1121.67 108.663 1142.37 80.064 1172 95.9966C1225 124.5 1183 205.497 1167 205.497C1143.28 205.497 1134.5 178.497 1162.5 163.497C1181.66 153.231 1205.5 163.497 1212.5 186.997C1219.53 210.599 1233.5 363 1197.5 348.5C1161.5 334 1162.5 363.5 1156.5 374.997C1142.54 401.746 1121.67 399.163 1119 399.497" stroke="#FC8AD0" stroke-width="2" stroke-linecap="round"/>
<path d="M730 642.502C667.667 615.168 573.676 607.851 591 627.502C624.5 665.502 654.5 574.5 644.5 554.5C634.5 534.5 584.067 557.278 546.5 586.501C537.5 593.502 499.5 620.834 488 655.501" stroke="#FC8AD0" stroke-width="2" stroke-linecap="round"/>
<path d="M496.5 85.0002C499.5 91.1668 519.3 97.3002 564.5 82.5002C609.7 67.7002 607 30.3337 598 15.0004C582.446 -11.5004 517 1.50019 547 49.5002C584.5 109.5 614.5 112 626 112C635.2 112 697.833 104.334 728 100.5" stroke="#FC8AD0" stroke-width="2" stroke-linecap="round"/>
</svg>
