<svg width="224" height="221" viewBox="0 0 224 221" fill="none" xmlns="http://www.w3.org/2000/svg">
<path d="M93.6046 15.1634C98.5143 -3.82977 125.486 -3.8298 130.395 15.1634L133.266 26.2695C136.389 38.3518 150.114 44.1935 160.987 38.0682L170.733 32.5778C188.232 22.7196 207.067 43.217 195.767 59.8214L194.171 62.1657C186.58 73.3202 192.709 88.6116 205.903 91.4349L208.173 91.9206C228.206 96.2072 228.206 124.793 208.173 129.079L205.903 129.565C192.709 132.388 186.58 147.68 194.171 158.834L195.767 161.179C207.067 177.783 188.232 198.28 170.733 188.422L160.987 182.932C150.114 176.806 136.389 182.648 133.266 194.731L130.395 205.837C125.486 224.83 98.5143 224.83 93.6046 205.837L90.7338 194.731C87.6106 182.648 73.8855 176.806 63.0127 182.932L53.2667 188.422C35.7678 198.28 16.9333 177.783 28.2334 161.179L29.8288 158.834C37.42 147.68 31.2907 132.388 18.0969 129.565L15.8269 129.079C-4.2056 124.793 -4.20561 96.2072 15.8268 91.9206L18.0968 91.4349C31.2907 88.6116 37.42 73.3202 29.8288 62.1657L28.2334 59.8214C16.9333 43.217 35.7678 22.7196 53.2668 32.5778L63.0127 38.0682C73.8855 44.1935 87.6106 38.3518 90.7338 26.2695L93.6046 15.1634Z" fill="#FDF18D"/>
</svg>
