<svg width="16" height="16" viewBox="0 0 16 16" fill="none" xmlns="http://www.w3.org/2000/svg">
<g clip-path="url(#clip0_1_432)">
<path d="M3.65374 1.32781C3.5947 1.25187 3.52019 1.18936 3.43514 1.14443C3.35009 1.0995 3.25646 1.07319 3.16046 1.06723C3.06446 1.06127 2.96829 1.07581 2.87833 1.10987C2.78838 1.14394 2.70671 1.19675 2.63874 1.26481L1.60474 2.29981C1.12174 2.78381 0.943738 3.46881 1.15474 4.06981C2.03048 6.55739 3.45503 8.8159 5.32274 10.6778C7.18466 12.5455 9.44317 13.97 11.9307 14.8458C12.5317 15.0568 13.2167 14.8788 13.7007 14.3958L14.7347 13.3618C14.8028 13.2938 14.8556 13.2122 14.8897 13.1222C14.9237 13.0323 14.9383 12.9361 14.9323 12.8401C14.9264 12.7441 14.9 12.6505 14.8551 12.5654C14.8102 12.4804 14.7477 12.4058 14.6717 12.3468L12.3647 10.5528C12.2836 10.4899 12.1892 10.4462 12.0888 10.4251C11.9883 10.4039 11.8843 10.4059 11.7847 10.4308L9.59474 10.9778C9.30242 11.0509 8.99616 11.047 8.70578 10.9666C8.41541 10.8861 8.1508 10.7319 7.93774 10.5188L5.48174 8.06181C5.26851 7.84884 5.11406 7.58429 5.03345 7.29391C4.95284 7.00352 4.9488 6.69721 5.02174 6.40481L5.56974 4.21481C5.59465 4.1152 5.59661 4.01124 5.57547 3.91077C5.55434 3.8103 5.51066 3.71594 5.44774 3.63481L3.65374 1.32781ZM1.88374 0.510807C2.05873 0.335756 2.26897 0.199937 2.50048 0.112368C2.73199 0.0247988 2.97948 -0.0125165 3.22652 0.00289975C3.47356 0.018316 3.71449 0.0861112 3.93332 0.201783C4.15215 0.317456 4.34386 0.478358 4.49574 0.673807L6.28974 2.97981C6.61874 3.40281 6.73474 3.95381 6.60474 4.47381L6.05774 6.66381C6.02946 6.77724 6.03099 6.89605 6.06217 7.00872C6.09336 7.12138 6.15315 7.22407 6.23574 7.30681L8.69274 9.76381C8.77558 9.84656 8.87843 9.90645 8.99129 9.93764C9.10415 9.96884 9.22316 9.97027 9.33674 9.94181L11.5257 9.39481C11.7824 9.33065 12.0502 9.32566 12.309 9.38023C12.5678 9.4348 12.8109 9.5475 13.0197 9.70981L15.3257 11.5038C16.1547 12.1488 16.2307 13.3738 15.4887 14.1148L14.4547 15.1488C13.7147 15.8888 12.6087 16.2138 11.5777 15.8508C8.93892 14.9223 6.54301 13.4116 4.56774 11.4308C2.58703 9.45582 1.07635 7.06027 0.147739 4.42181C-0.214261 3.39181 0.110739 2.28481 0.850739 1.54481L1.88474 0.510807H1.88374Z" fill="white"/>
</g>
<defs>
<clipPath id="clip0_1_432">
<rect width="16" height="16" fill="white"/>
</clipPath>
</defs>
</svg>
